<svg width="26" height="24" viewBox="0 0 26 24" fill="none" xmlns="http://www.w3.org/2000/svg">
<path d="M18.625 0.53125C16.45 0.53125 14.3625 1.54375 13 3.14375C11.6375 1.54375 9.55 0.53125 7.375 0.53125C3.525 0.53125 0.5 3.55625 0.5 7.40625C0.5 12.1313 4.75 15.9813 11.1875 21.8313L13 23.4688L14.8125 21.8188C21.25 15.9813 25.5 12.1313 25.5 7.40625C25.5 3.55625 22.475 0.53125 18.625 0.53125ZM13.125 19.9688L13 20.0938L12.875 19.9688C6.925 14.5812 3 11.0188 3 7.40625C3 4.90625 4.875 3.03125 7.375 3.03125C9.3 3.03125 11.175 4.26875 11.8375 5.98125H14.175C14.825 4.26875 16.7 3.03125 18.625 3.03125C21.125 3.03125 23 4.90625 23 7.40625C23 11.0188 19.075 14.5812 13.125 19.9688Z" fill="#A4A4A4"/>
</svg>
