<svg width="25" height="23" viewBox="0 0 25 23" fill="none" xmlns="http://www.w3.org/2000/svg">
<path d="M24.8683 7.37239L23.5558 1.90989C23.2808 0.784888 22.3058 0.0098877 21.1683 0.0098877H3.80579C2.68079 0.0098877 1.69329 0.797388 1.43079 1.90989L0.118294 7.37239C-0.181706 8.64739 0.0932945 9.94739 0.893295 10.9724C0.993295 11.1099 1.13079 11.2099 1.24329 11.3349V20.0099C1.24329 21.3849 2.36829 22.5099 3.74329 22.5099H21.2433C22.6183 22.5099 23.7433 21.3849 23.7433 20.0099V11.3349C23.8558 11.2224 23.9933 11.1099 24.0933 10.9849C24.8933 9.95989 25.1808 8.64739 24.8683 7.37239ZM21.1308 2.49739L22.4433 7.95989C22.5683 8.48489 22.4558 9.00989 22.1308 9.42239C21.9558 9.64739 21.5808 10.0099 20.9558 10.0099C20.1933 10.0099 19.5308 9.39739 19.4433 8.58489L18.7183 2.50989L21.1308 2.49739ZM13.7433 2.50989H16.1933L16.8683 8.15989C16.9308 8.64739 16.7808 9.13489 16.4558 9.49739C16.1808 9.82239 15.7808 10.0099 15.2683 10.0099C14.4308 10.0099 13.7433 9.27239 13.7433 8.37239V2.50989ZM8.10579 8.15989L8.79329 2.50989H11.2433V8.37239C11.2433 9.27239 10.5558 10.0099 9.63079 10.0099C9.20579 10.0099 8.81829 9.82239 8.51829 9.49739C8.20579 9.13489 8.05579 8.64739 8.10579 8.15989ZM2.54329 7.95989L3.80579 2.50989H6.26829L5.54329 8.58489C5.44329 9.39739 4.79329 10.0099 4.03079 10.0099C3.41829 10.0099 3.03079 9.64739 2.86829 9.42239C2.53079 9.02239 2.41829 8.48489 2.54329 7.95989ZM3.74329 20.0099V12.4724C3.84329 12.4849 3.93079 12.5099 4.03079 12.5099C5.11829 12.5099 6.10579 12.0599 6.83079 11.3224C7.58079 12.0724 8.58079 12.5099 9.71829 12.5099C10.8058 12.5099 11.7808 12.0599 12.5058 11.3474C13.2433 12.0599 14.2433 12.5099 15.3683 12.5099C16.4183 12.5099 17.4183 12.0724 18.1683 11.3224C18.8933 12.0599 19.8808 12.5099 20.9683 12.5099C21.0683 12.5099 21.1558 12.4849 21.2558 12.4724V20.0099H3.74329Z" fill="#A4A4A4"/>
</svg>
