<svg width="25" height="25" viewBox="0 0 25 25" fill="none" xmlns="http://www.w3.org/2000/svg">
<path d="M11.7402 0L4.86523 11.25H18.6152L11.7402 0ZM11.7402 4.8L14.1527 8.75H9.31524L11.7402 4.8ZM18.6152 13.75C15.5027 13.75 12.9902 16.2625 12.9902 19.375C12.9902 22.4875 15.5027 25 18.6152 25C21.7277 25 24.2402 22.4875 24.2402 19.375C24.2402 16.2625 21.7277 13.75 18.6152 13.75ZM18.6152 22.5C16.8902 22.5 15.4902 21.1 15.4902 19.375C15.4902 17.65 16.8902 16.25 18.6152 16.25C20.3402 16.25 21.7402 17.65 21.7402 19.375C21.7402 21.1 20.3402 22.5 18.6152 22.5ZM0.490234 24.375H10.4902V14.375H0.490234V24.375ZM2.99023 16.875H7.99023V21.875H2.99023V16.875Z" fill="#A4A4A4"/>
</svg>
