<svg width="18" height="16" viewBox="0 0 18 16" fill="none" xmlns="http://www.w3.org/2000/svg">
<path d="M12.7498 0.354156C11.2998 0.354156 9.90817 1.02916 8.99984 2.09582C8.0915 1.02916 6.69984 0.354156 5.24984 0.354156C2.68317 0.354156 0.666504 2.37082 0.666504 4.93749C0.666504 8.08749 3.49984 10.6542 7.7915 14.5542L8.99984 15.6458L10.2082 14.5458C14.4998 10.6542 17.3332 8.08749 17.3332 4.93749C17.3332 2.37082 15.3165 0.354156 12.7498 0.354156ZM9.08317 13.3125L8.99984 13.3958L8.9165 13.3125C4.94984 9.72082 2.33317 7.34582 2.33317 4.93749C2.33317 3.27082 3.58317 2.02082 5.24984 2.02082C6.53317 2.02082 7.78317 2.84582 8.22484 3.98749H9.78317C10.2165 2.84582 11.4665 2.02082 12.7498 2.02082C14.4165 2.02082 15.6665 3.27082 15.6665 4.93749C15.6665 7.34582 13.0498 9.72082 9.08317 13.3125Z" fill="black"/>
</svg>
