<svg width="20" height="20" viewBox="0 0 20 20" fill="none" xmlns="http://www.w3.org/2000/svg">
<path d="M10 2.50989C11.375 2.50989 12.5 3.63489 12.5 5.00989C12.5 6.38489 11.375 7.50989 10 7.50989C8.625 7.50989 7.5 6.38489 7.5 5.00989C7.5 3.63489 8.625 2.50989 10 2.50989ZM10 15.0099C13.375 15.0099 17.25 16.6224 17.5 17.5099H2.5C2.7875 16.6099 6.6375 15.0099 10 15.0099ZM10 0.0098877C7.2375 0.0098877 5 2.24739 5 5.00989C5 7.77239 7.2375 10.0099 10 10.0099C12.7625 10.0099 15 7.77239 15 5.00989C15 2.24739 12.7625 0.0098877 10 0.0098877ZM10 12.5099C6.6625 12.5099 0 14.1849 0 17.5099V20.0099H20V17.5099C20 14.1849 13.3375 12.5099 10 12.5099Z" fill="#A4A4A4"/>
</svg>
